<svg xmlns="http://www.w3.org/2000/svg" viewBox="0 0 743 125" xmlns:v="https://vecta.io/nano"><path d="M581.996 117.062h-29.952l-24.048-35.26-3.052-4.405 3.052-4.006 23.46-29.803h29.36l-28.326 33.2 29.506 40.275zM65.255 39.753c-2.165-2.752-4.992-4.941-8.483-6.565s-6.86-2.433-10.108-2.433c-1.672 0-3.369.146-5.09.441s-3.27.863-4.647 1.697-2.532 1.919-3.467 3.247-1.401 3.023-1.401 5.09c0 1.769.368 3.246 1.105 4.425s1.819 2.215 3.247 3.099 3.12 1.697 5.09 2.435 4.18 1.499 6.64 2.286c3.539 1.181 7.227 2.485 11.064 3.91s7.326 3.319 10.475 5.681 5.755 5.288 7.82 8.778 3.099 7.843 3.099 13.057c0 6.001-1.108 11.19-3.32 15.566s-5.189 7.991-8.927 10.843-8.017 4.967-12.835 6.343-9.788 2.068-14.902 2.068c-7.476 0-14.704-1.307-21.688-3.911S6.141 109.489 1.52 104.67l16.522-16.818c2.558 3.147 5.926 5.779 10.108 7.891s8.337 3.173 12.467 3.173a24.97 24.97 0 0 0 5.459-.591c1.771-.391 3.32-1.032 4.647-1.918s2.383-2.065 3.172-3.54 1.181-3.246 1.181-5.311c0-1.968-.494-3.637-1.475-5.017s-2.386-2.629-4.204-3.763c-1.822-1.127-4.084-2.162-6.786-3.097a347.19 347.19 0 0 0-9.222-3.022 88.21 88.21 0 0 1-9.812-3.84c-3.196-1.477-6.049-3.364-8.557-5.679-2.509-2.309-4.525-5.114-6.048-8.41s-2.289-7.302-2.289-12.025c0-5.801 1.182-10.769 3.543-14.9s5.458-7.524 9.295-10.179 8.161-4.598 12.982-5.828 9.686-1.844 14.606-1.844c5.901 0 11.924 1.084 18.072 3.244s11.533 5.362 16.157 9.591L65.255 39.753m52.375 21.836v28.142c0 3.453.665 6.045 1.994 7.773s3.71 2.592 7.154 2.592c1.182 0 2.436-.097 3.763-.294s2.433-.49 3.319-.885l.294 17.706c-1.672.587-3.787 1.105-6.343 1.549s-5.115.661-7.671.661c-4.918 0-9.051-.618-12.392-1.848s-6.026-3.006-8.043-5.325-3.466-5.08-4.35-8.284-1.328-6.779-1.328-10.723V61.589H82.222V43.59h11.656V24.263h23.753V43.59h17.262v17.999H117.63m68.31 23.458h-3.1l-8.04.37c-2.706.246-5.115.714-7.229 1.401s-3.86 1.697-5.237 3.023-2.065 3.076-2.065 5.238c0 1.378.316 2.558.957 3.542a7.41 7.41 0 0 0 2.436 2.361c.981.59 2.113 1.01 3.393 1.254s2.508.37 3.689.37c4.915 0 8.678-1.351 11.284-4.058s3.911-6.368 3.911-10.99v-2.509zm-44.409-31.425c4.327-4.13 9.368-7.229 15.121-9.295s11.631-3.097 17.632-3.097c6.196 0 11.434.763 15.711 2.286s7.747 3.887 10.402 7.082 4.598 7.229 5.828 12.098 1.844 10.647 1.844 17.336v37.03H185.94v-7.82h-.443c-1.871 3.05-4.698 5.409-8.484 7.083s-7.893 2.508-12.32 2.508c-2.95 0-5.999-.394-9.147-1.181s-6.026-2.065-8.631-3.836-4.745-4.131-6.418-7.082-2.508-6.589-2.508-10.916c0-5.312 1.449-9.591 4.351-12.837s6.639-5.756 11.213-7.526 9.664-2.949 15.27-3.54 11.066-.884 16.378-.884V69.85c0-3.636-1.281-6.318-3.837-8.04s-5.706-2.58-9.442-2.58a23.47 23.47 0 0 0-9.959 2.212c-3.194 1.477-5.926 3.246-8.188 5.311L141.53 53.622m105.637 7.967v28.142c0 3.453.664 6.045 1.992 7.773s3.71 2.592 7.154 2.592a25.66 25.66 0 0 0 3.763-.294c1.328-.194 2.433-.49 3.32-.885l.293 17.706c-1.671.587-3.786 1.105-6.343 1.549s-5.114.661-7.671.661c-4.918 0-9.051-.618-12.392-1.848s-6.025-3.006-8.043-5.325-3.466-5.08-4.35-8.284-1.328-6.779-1.328-10.723V61.589h-11.804V43.59h11.656V24.263h23.754V43.59h17.262v17.999h-17.262m70.371 3.689c-1.966-1.869-4.278-3.442-6.933-4.721s-5.458-1.918-8.41-1.918c-2.263 0-4.351.443-6.269 1.327s-2.877 2.412-2.877 4.573c0 2.068 1.055 3.543 3.173 4.428s5.532 1.869 10.252 2.949c2.752.591 5.532 1.427 8.337 2.509s5.334 2.508 7.599 4.278 4.078 3.934 5.458 6.49 2.065 5.609 2.065 9.149c0 4.624-.935 8.535-2.803 11.727-1.868 3.2-4.303 5.781-7.302 7.746s-6.37 3.393-10.106 4.278-7.477 1.331-11.214 1.331c-5.999 0-11.876-.961-17.629-2.879s-10.55-4.743-14.386-8.483l13.573-14.312c2.162 2.361 4.817 4.33 7.967 5.902s6.492 2.361 10.033 2.361c1.966 0 3.909-.466 5.828-1.402s2.876-2.58 2.876-4.942c0-2.262-1.181-3.933-3.542-5.015s-6.048-2.213-11.064-3.393c-2.558-.591-5.115-1.377-7.671-2.362s-4.847-2.309-6.86-3.984-3.666-3.736-4.944-6.196-1.918-5.408-1.918-8.851c0-4.427.934-8.188 2.803-11.286a23.76 23.76 0 0 1 7.23-7.6c2.952-1.969 6.218-3.416 9.811-4.351s7.156-1.401 10.696-1.401a51.66 51.66 0 0 1 16.155 2.582c5.261 1.721 9.712 4.301 13.352 7.746L317.54 65.279m69.634 6.637c0-3.836-1.205-7.13-3.612-9.885-2.413-2.753-6.028-4.131-10.846-4.131-2.361 0-4.524.368-6.49 1.107s-3.689 1.748-5.165 3.025a15.03 15.03 0 0 0-3.54 4.5c-.885 1.724-1.378 3.519-1.477 5.385h31.13zm22.28 9.295v2.952a25.73 25.73 0 0 1-.149 2.803h-53.261c.197 2.064.814 3.934 1.845 5.605s2.361 3.123 3.983 4.353a19.21 19.21 0 0 0 5.459 2.877c2.016.686 4.107 1.031 6.271 1.031 3.837 0 7.082-.711 9.738-2.139s4.818-3.267 6.49-5.532l16.822 10.623c-3.444 5.017-7.996 8.878-13.651 11.581s-12.221 4.06-19.695 4.06c-5.509 0-10.722-.864-15.638-2.585s-9.222-4.227-12.909-7.523-6.59-7.353-8.705-12.173-3.172-10.326-3.172-16.525c0-5.996 1.032-11.433 3.099-16.3s4.87-9.002 8.411-12.395 7.719-6.023 12.54-7.893 10.032-2.803 15.64-2.803c5.408 0 10.373.91 14.899 2.729s8.413 4.451 11.656 7.893 5.776 7.624 7.6 12.541c1.818 4.92 2.729 10.527 2.729 16.819m58.272-9.294c0-3.836-1.204-7.13-3.614-9.885S458.089 57.9 453.27 57.9c-2.359 0-4.525.368-6.493 1.107s-3.689 1.748-5.162 3.025a15.08 15.08 0 0 0-3.542 4.5c-.884 1.724-1.377 3.519-1.475 5.385h31.13zm22.28 9.295v2.952a25.25 25.25 0 0 1-.15 2.803h-53.26c.196 2.064.814 3.934 1.844 5.605s2.362 3.123 3.986 4.353 3.442 2.191 5.458 2.877 4.106 1.031 6.271 1.031c3.837 0 7.08-.711 9.738-2.139s4.818-3.267 6.49-5.532l16.819 10.623c-3.442 5.017-7.993 8.878-13.648 11.581s-12.223 4.06-19.695 4.06c-5.511 0-10.722-.864-15.638-2.585s-9.221-4.227-12.911-7.523-6.589-7.353-8.705-12.173-3.17-10.326-3.17-16.525c0-5.996 1.031-11.433 3.099-16.3s4.87-9.002 8.408-12.395c3.544-3.394 7.721-6.023 12.542-7.893s10.032-2.803 15.638-2.803c5.409 0 10.375.91 14.9 2.729s8.411 4.451 11.654 7.893c3.249 3.446 5.779 7.624 7.6 12.541s2.73 10.527 2.73 16.819m141.11-9.292c0-3.836-1.204-7.13-3.614-9.885s-6.025-4.133-10.843-4.133c-2.361 0-4.525.37-6.492 1.108s-3.689 1.748-5.164 3.025a14.94 14.94 0 0 0-3.54 4.5c-.885 1.721-1.378 3.519-1.477 5.385h31.13zm22.28 9.295v2.95c0 .985-.051 1.916-.15 2.803h-53.26c.196 2.065.814 3.934 1.845 5.606s2.361 3.123 3.984 4.354 3.442 2.188 5.458 2.875 4.106 1.032 6.269 1.032c3.837 0 7.082-.711 9.739-2.139s4.817-3.269 6.492-5.532l16.818 10.622c-3.442 5.017-7.993 8.88-13.648 11.583s-12.221 4.058-19.695 4.058c-5.509 0-10.722-.864-15.638-2.585s-9.222-4.227-12.909-7.523-6.589-7.352-8.705-12.171-3.172-10.328-3.172-16.525c0-5.996 1.032-11.434 3.099-16.3 2.065-4.872 4.87-9.002 8.408-12.397s7.721-6.022 12.542-7.891 10.032-2.803 15.638-2.803c5.409 0 10.375.91 14.9 2.728s8.41 4.453 11.656 7.894 5.776 7.623 7.599 12.541 2.73 10.526 2.73 16.819m55.323-17.704c-1.084-.296-2.139-.491-3.173-.591l-3.023-.149c-3.244 0-5.973.591-8.187 1.768s-3.983 2.6-5.312 4.267-2.286 3.483-2.877 5.445-.885 3.677-.885 5.147v37.669h-24.195V43.679h23.31V54.3h.296c1.869-3.761 4.523-6.832 7.967-9.209s7.426-3.564 11.951-3.564c.981 0 1.942.049 2.876.147s1.698.247 2.289.441l-1.035 21.393" fill="#fff"/><path d="M741.48 104.081c0 4.131-1.522 7.577-4.561 10.328s-6.676 4.133-10.9 4.133c-2.163 0-4.201-.37-6.108-1.108s-3.582-1.745-5.024-3.025a14.04 14.04 0 0 1-3.402-4.5c-.825-1.719-1.237-3.614-1.237-5.679 0-1.968.411-3.837 1.237-5.606s1.958-3.32 3.402-4.648 3.116-2.383 5.024-3.17 3.944-1.181 6.108-1.181c4.224 0 7.858 1.377 10.9 4.131s4.561 6.193 4.561 10.326" fill="#35bca8"/><path d="M519.505 117.064h-23.763V5.28h23.763v55.042l-13.548 16.992 13.548 19.14v20.609z" fill="#fff"/></svg>