<svg width="128" height="128"
	xmlns="http://www.w3.org/2000/svg"
	xmlns:xlink="http://www.w3.org/1999/xlink">
	<g>
		<title>Layer 1</title>
		<rect stroke-width="0" id="svg_5" height="128" width="128" y="0.33438" x="0.25063" stroke="#000" fill="#ec1c24"/>
		<rect stroke-width="0" id="svg_7" height="112" width="112" y="8" x="8" stroke="#000" fill="#ffffff"/>
		<defs transform="translate(0.124994) translate(18.7931) translate(0, 16.4) translate(18.7931, 16.4) scale(1.05254) translate(-18.7931, -16.4) translate(108.269, 110.781) scale(1.05517) translate(-108.269, -110.781) translate(12.1944, 9.78942) scale(1.00996) translate(-12.1944, -9.78942) translate(102.488, 104.893) scale(1.01233) translate(-102.488, -104.893) translate(101.24, 103.616) scale(0.99513) translate(-101.24, -103.616)" id="svg_324">
			<rect id="svg_323" x="-62.4" y="-289.60001" width="612" height="792"/>
		</defs>
		<clipPath transform="translate(0.124994) translate(18.7931) translate(0, 16.4) translate(18.7931, 16.4) scale(1.05254) translate(-18.7931, -16.4) translate(108.269, 110.781) scale(1.05517) translate(-108.269, -110.781) translate(12.1944, 9.78942) scale(1.00996) translate(-12.1944, -9.78942) translate(102.488, 104.893) scale(1.01233) translate(-102.488, -104.893) translate(101.24, 103.616) scale(0.99513) translate(-101.24, -103.616)" id="svg_321">
			<use href="#svg_323" xlink:href="#svg_323" overflow="visible" id="svg_322" x="18.91807" y="16.4" width="100%" height="100%"/>
		</clipPath>
		<path clip-path="url(#svg_321)" d="m64.15007,25.90185l-0.33899,0l-17.17534,51.18704c-0.79097,2.25991 0.90397,4.51983 3.27687,4.51983l28.36191,0c2.37291,0 3.95485,-2.25991 3.27687,-4.51983l-17.40133,-51.18704zm-24.63306,73.67317l-5.3108,15.7064c-0.45198,1.35595 -1.80793,2.37291 -3.27687,2.37291l-14.57644,0c-2.37291,0 -3.95485,-2.25991 -3.27687,-4.51983l34.12469,-100.67914c0.45198,-1.35595 1.80793,-2.37291 3.27687,-2.37291l26.21499,0c1.46894,0 2.7119,0.90397 3.27687,2.25991l34.91566,100.45315c0.79097,2.25991 -0.90397,4.51983 -3.27687,4.51983l-14.12446,0c-1.46894,0 -2.7119,-0.90397 -3.27687,-2.25991l-5.64978,-15.5934c-0.45198,-1.35595 -1.80793,-2.25991 -3.27687,-2.25991l-42.59937,0c-1.46894,0 -2.7119,0.90397 -3.16388,2.37291" id="svg_320"/>
	</g>
</svg>