<?xml version="1.0" encoding="utf-8"?>
<svg width="562.746" height="562.746" xmlns="http://www.w3.org/2000/svg" xml:space="preserve" version="1.1">
 <g>
  <title>Layer 1</title>
  <g transform="rotate(-180, 281.373, 281.373)" id="svg_1">
   <g id="svg_2">
    <path fill="#228c22" id="svg_3" d="m281.373,0c-155.399,0 -281.373,125.974 -281.373,281.373c0,155.399 125.974,281.373 281.373,281.373c155.399,0 281.373,-125.974 281.373,-281.373c0,-155.399 -125.974,-281.373 -281.373,-281.373zm173.759,325.363l-152.118,152.125c-11.953,11.952 -31.329,11.952 -43.275,0l-152.131,-152.125c-11.952,-11.952 -7.938,-21.64 8.959,-21.64l58.073,0l0,-215.185c0,-6.763 5.483,-12.24 12.24,-12.24l188.973,0c6.757,0 12.24,5.478 12.24,12.24l0,215.191l58.072,0c16.904,0 20.919,9.682 8.967,21.634z"/>
   </g>
  </g>
 </g>
</svg>